<svg width="32" height="32" viewBox="0 0 32 32" fill="none" xmlns="http://www.w3.org/2000/svg">
<path fill-rule="evenodd" clip-rule="evenodd" d="M16 32C24.8366 32 32 24.8366 32 16C32 7.16344 24.8366 0 16 0C7.16344 0 0 7.16344 0 16C0 24.8366 7.16344 32 16 32ZM14.1945 23.2509C14.7012 23.2595 15.1109 22.8501 15.1109 22.3433C15.1109 21.843 14.711 21.4373 14.2108 21.4305C13.1108 21.4156 11.3983 21.3873 11.2413 21.3457C11.0241 21.2867 10.8571 21.174 10.7402 21.0077C10.6233 20.8468 10.5648 20.6134 10.5648 20.3076V18.0908C10.5648 17.5865 10.3978 17.1869 10.0637 16.8918C9.73812 16.599 9.26973 16.2284 8.65854 16.1303C8.63113 16.1259 8.61053 16.1025 8.61053 16.0747C8.61053 16.0471 8.63088 16.0238 8.65809 16.0192C9.2695 15.9163 9.73804 15.5456 10.0637 15.258C10.3978 14.9576 10.5648 14.5552 10.5648 14.051V11.8341C10.5648 11.5284 10.6233 11.295 10.7402 11.1341C10.8571 10.9731 11.0241 10.8631 11.2413 10.8041C11.3985 10.7587 13.115 10.7279 14.2148 10.7119C14.7128 10.7046 15.1109 10.3005 15.1109 9.80246C15.1109 9.29794 14.703 8.8903 14.1986 8.89883C12.6946 8.92426 10.1831 8.99875 9.76305 9.12231C9.23412 9.27252 8.86665 9.51393 8.66064 9.84654C8.46021 10.1738 8.35999 10.6003 8.35999 11.126V13.685C8.35999 14.0283 8.27647 14.3073 8.10944 14.5218C7.94798 14.7311 7.70856 14.884 7.3912 14.9805C7.32352 15 7.25254 15.0173 7.17827 15.0326C6.65811 15.1398 6.22198 15.5478 6.22198 16.0789C6.22198 16.61 6.65873 17.017 7.17763 17.1301C7.25213 17.1463 7.32333 17.1647 7.3912 17.1854C7.70856 17.282 7.94798 17.4349 8.10944 17.6441C8.27647 17.8533 8.35999 18.1323 8.35999 18.481V21.0158C8.35999 21.5415 8.46021 21.9707 8.66064 22.3033C8.86665 22.6359 9.23412 22.8773 9.76305 23.0275C10.1828 23.151 12.69 23.2254 14.1945 23.2509ZM16.8892 22.3433C16.8892 22.8501 17.2989 23.2595 17.8056 23.2509C19.31 23.2254 21.8173 23.151 22.237 23.0275C22.7659 22.8773 23.1334 22.6359 23.3394 22.3033C23.5399 21.9707 23.6401 21.5415 23.6401 21.0158V18.481C23.6401 18.1323 23.7236 17.8533 23.8906 17.6441C24.0521 17.4349 24.2915 17.282 24.6089 17.1854C24.6767 17.1648 24.7479 17.1463 24.8224 17.1301C25.3413 17.017 25.7781 16.61 25.7781 16.079C25.7781 15.5479 25.342 15.1398 24.8218 15.0327C24.7475 15.0174 24.6765 15 24.6089 14.9805C24.2915 14.884 24.0521 14.7311 23.8906 14.5219C23.7236 14.3073 23.6401 14.0283 23.6401 13.685V11.126C23.6401 10.6003 23.5399 10.1738 23.3394 9.84656C23.1334 9.51395 22.7659 9.27254 22.237 9.12233C21.8169 8.99877 19.3055 8.92428 17.8015 8.89885C17.297 8.89032 16.8892 9.29796 16.8892 9.80248C16.8892 10.3005 17.2873 10.7047 17.7853 10.7119C18.8851 10.728 20.6016 10.7587 20.7588 10.8042C20.9759 10.8632 21.143 10.9731 21.2599 11.1341C21.3768 11.295 21.4353 11.5284 21.4353 11.8342V14.051C21.4353 14.5553 21.6023 14.9576 21.9363 15.258C22.262 15.5457 22.7306 15.9163 23.342 16.0192C23.3692 16.0238 23.3895 16.0471 23.3895 16.0747C23.3895 16.1025 23.3689 16.1259 23.3415 16.1303C22.7303 16.2284 22.2619 16.599 21.9363 16.8918C21.6023 17.1869 21.4353 17.5866 21.4353 18.0908V20.3076C21.4353 20.6134 21.3768 20.8468 21.2599 21.0077C21.143 21.174 20.9759 21.2867 20.7588 21.3457C20.6018 21.3873 18.8892 21.4156 17.7893 21.4305C17.2891 21.4373 16.8892 21.8431 16.8892 22.3433ZM13.9157 14.9448C13.2886 14.9448 12.7802 15.4532 12.7802 16.0803C12.7802 16.7074 13.2886 17.2158 13.9157 17.2158C14.5428 17.2158 15.0512 16.7074 15.0512 16.0803C15.0512 15.4532 14.5428 14.9448 13.9157 14.9448Z" fill="whitesmoke"/>
</svg>
